<?xml version="1.0" encoding="utf-8"?>
<!-- Generator: Adobe Illustrator 19.0.0, SVG Export Plug-In . SVG Version: 6.00 Build 0)  -->
<svg version="1.1" id="Layer_1" xmlns="http://www.w3.org/2000/svg" xmlns:xlink="http://www.w3.org/1999/xlink" x="0px" y="0px"
	 viewBox="0 0 712.7 132.4" style="enable-background:new 0 0 712.7 132.4;" xml:space="preserve">
<style type="text/css">
	.st0{fill:#FFFFFF;}
</style>
<g>
	<g>
		<g>
			
				<rect x="85.2" y="11.5" transform="matrix(0.7071 -0.7071 0.7071 0.7071 11.0179 72.2332)" class="st0" width="15" height="22.5"/>
			<polygon class="st0" points="44,76.8 33.4,66.2 77.7,21.9 88.3,32.6 			"/>
			<polygon class="st0" points="102.4,110.5 91.8,99.9 136.1,55.6 146.7,66.2 			"/>
			
				<rect x="65.7" y="64.1" transform="matrix(0.707 -0.7072 0.7072 0.707 -46.0495 79.7465)" class="st0" width="15" height="62.6"/>
			<polygon class="st0" points="134.3,53.8 123.7,64.4 104.2,45 114.9,34.3 			"/>
			<polygon class="st0" points="97.1,73.3 86.5,62.7 102.4,46.7 113.1,57.4 			"/>
		</g>
	</g>
	<g>
		<g>
			<path class="st0" d="M201.9,34.1c-2-2.7-4.5-4.3-7.9-4.3c-3.3,0-6.5,2.5-6.5,6c0,8.9,21,5.2,21,22.9c0,10.6-6.6,18.1-17.4,18.1
				c-7.3,0-12.6-4.2-16.3-10.3l6.7-6.5c1.4,4.1,5.1,7.7,9.5,7.7c4.2,0,6.8-3.6,6.8-7.6c0-5.5-5-7-9.2-8.6
				c-6.8-2.8-11.8-6.2-11.8-14.4c0-8.8,6.5-15.9,15.4-15.9c4.7,0,11.2,2.3,14.5,5.9L201.9,34.1z"/>
			<path class="st0" d="M231.1,75.3h-10.3V31.4h-10.7v-9h31.6v9h-10.7V75.3z"/>
			<path class="st0" d="M247.2,22.4h10.3v29.6c0,6.5,0.6,15.7,9.3,15.7c8.8,0,9.3-9.2,9.3-15.7V22.4h10.3v31.6
				c0,12.9-5.5,22.7-19.6,22.7c-14.2,0-19.6-9.8-19.6-22.7V22.4z"/>
			<path class="st0" d="M291.9,22.4h14.7c15.3,0,25.5,11.4,25.5,26.5c0,14.9-10.5,26.4-25.6,26.4h-14.7V22.4z M302.2,66.4h1.7
				c12.7,0,17.6-7,17.6-17.5c0-11.5-5.9-17.5-17.6-17.5h-1.7V66.4z"/>
			<path class="st0" d="M347.5,31.4v11.6h16.4v9h-16.4v14.3h17v9h-27.4V22.4h27.4v9H347.5z"/>
			<path class="st0" d="M378.3,22.5L405.1,58h0.1V22.4h10.3v52.9h-8.2l-27.1-35.9h-0.1v35.9h-10.3V22.4L378.3,22.5z"/>
			<path class="st0" d="M441.8,75.3h-10.3V31.4h-10.7v-9h31.6v9h-10.7V75.3z"/>
			<path class="st0" d="M526,48.7v2.1c0,14.5-10.2,25.7-25,25.7c-14.8,0-26.7-12.8-26.7-27.4c0-15.2,12.2-27.7,27.4-27.7
				c8.2,0,16.3,3.7,21.5,10.2l-4.6,4.4c-3.8-5.2-10.2-8.6-16.6-8.6c-11.8,0-21.1,9.6-21.1,21.5c0,11.1,9.1,21.6,20.6,21.6
				c8.2,0,17-7.1,17.3-15.7H505v-6H526z"/>
			<path class="st0" d="M538.2,22.4v31.2c0,8.6,2.6,16.6,12.8,16.6c10.2,0,12.8-8,12.8-16.6V22.4h6.6v33.5
				c0,11.6-7.2,20.6-19.4,20.6c-12.1,0-19.3-8.9-19.3-20.6V22.4H538.2z"/>
			<path class="st0" d="M586.3,75.3h-6.6V22.4h6.6V75.3z"/>
			<path class="st0" d="M602.3,69.3h16.1v6h-22.7V22.4h6.6V69.3z"/>
			<path class="st0" d="M622.2,22.4h11c16.2,0,29.7,8.6,29.7,26.2c0,18-13.2,26.7-29.9,26.7h-10.7V22.4z M628.8,69.3h2.3
				c13.5,0,25.1-5.1,25.1-20.4c0-15.4-11.6-20.4-25.1-20.4h-2.3V69.3z"/>
		</g>
		<g>
			<g>
				<path class="st0" d="M193.4,100.8v0.8c0,5.2-3.7,9.2-9,9.2c-5.3,0-9.6-4.6-9.6-9.8c0-5.5,4.4-9.9,9.8-9.9c3,0,5.9,1.3,7.7,3.7
					l-1.7,1.6c-1.4-1.9-3.6-3.1-6-3.1c-4.3,0-7.6,3.4-7.6,7.7c0,4,3.3,7.7,7.4,7.7c2.9,0,6.1-2.5,6.2-5.6h-4.9v-2.2H193.4z"/>
				<path class="st0" d="M210,110.4h-2.9l-5.6-8h-1v8h-2.4v-19h2.9c1.7,0,3.5,0,5,0.9c1.6,0.9,2.5,2.7,2.5,4.5c0,2.7-1.8,5-4.6,5.3
					L210,110.4z M200.6,100.4h0.7c2.4,0,5-0.5,5-3.5c0-3-2.8-3.4-5.1-3.4h-0.6V100.4z"/>
				<path class="st0" d="M216.7,110.4h-2.4v-19h2.4V110.4z"/>
				<path class="st0" d="M225.1,93.6v5.3h6.6v2.2h-6.6v9.3h-2.4v-19h9.2v2.2H225.1z"/>
				<path class="st0" d="M239.5,93.6v5.3h6.6v2.2h-6.6v9.3h-2.4v-19h9.2v2.2H239.5z"/>
				<path class="st0" d="M253.9,110.4h-2.4v-19h2.4V110.4z"/>
				<path class="st0" d="M265,110.4h-2.4V93.6h-4.5v-2.2h11.4v2.2H265V110.4z"/>
				<path class="st0" d="M285.1,99.1v-7.6h2.4v19h-2.4v-9.1h-9v9.1h-2.4v-19h2.4v7.6H285.1z"/>
				<path class="st0" d="M305.2,91.4v11.2c0,3.1,0.9,6,4.6,6c3.6,0,4.6-2.9,4.6-6V91.4h2.4v12c0,4.2-2.6,7.4-6.9,7.4
					c-4.3,0-6.9-3.2-6.9-7.4v-12H305.2z"/>
				<path class="st0" d="M322.2,90.5l14.2,14.9v-14h2.4v19.7l-14.2-14.9v14.1h-2.4V90.5z"/>
				<path class="st0" d="M347,110.4h-2.4v-19h2.4V110.4z"/>
				<path class="st0" d="M359.3,105.5l5.6-14h2.6l-8.2,20l-8.3-20h2.6L359.3,105.5z"/>
				<path class="st0" d="M371.6,91.4h10.2v2.2H374v5.3h7.6v2.2H374v7.2h7.8v2.2h-10.2V91.4z"/>
				<path class="st0" d="M399,110.4h-2.9l-5.6-8h-1v8h-2.4v-19h2.9c1.7,0,3.5,0,5,0.9c1.6,0.9,2.5,2.7,2.5,4.5c0,2.7-1.8,5-4.5,5.3
					L399,110.4z M389.6,100.4h0.8c2.4,0,5-0.5,5-3.5c0-3-2.8-3.4-5.2-3.4h-0.6V100.4z"/>
				<path class="st0" d="M411.8,95c-0.7-1.2-1.6-1.8-3-1.8c-1.5,0-3.2,1-3.2,2.7c0,1.5,1.5,2.3,2.6,2.7l1.4,0.5
					c2.7,1.1,4.7,2.5,4.7,5.7c0,3.4-2.7,5.9-6.1,5.9c-3.1,0-5.5-2.3-5.9-5.3l2.4-0.5c0,2.1,1.6,3.6,3.7,3.6c2,0,3.5-1.7,3.5-3.7
					c0-2-1.6-2.9-3.3-3.6l-1.3-0.6c-2.2-0.9-4.1-2.2-4.1-4.8c0-3.1,2.7-4.9,5.6-4.9c2.1,0,3.9,1,4.9,2.9L411.8,95z"/>
				<path class="st0" d="M421.7,110.4h-2.4v-19h2.4V110.4z"/>
				<path class="st0" d="M432.9,110.4h-2.4V93.6H426v-2.2h11.4v2.2h-4.5V110.4z"/>
				<path class="st0" d="M439.8,91.4h2.7l4.7,8.1l4.6-8.1h2.7l-6.2,10.7v8.2h-2.4v-8.2L439.8,91.4z"/>
			</g>
			<g>
				<path class="st0" d="M505.2,100.8v0.8c0,5.2-3.7,9.2-9,9.2c-5.3,0-9.6-4.6-9.6-9.8c0-5.5,4.4-9.9,9.8-9.9c2.9,0,5.9,1.3,7.7,3.7
					l-1.7,1.6c-1.4-1.9-3.7-3.1-6-3.1c-4.2,0-7.6,3.4-7.6,7.7c0,4,3.3,7.7,7.4,7.7c2.9,0,6.1-2.5,6.2-5.6h-4.9v-2.2H505.2z"/>
				<path class="st0" d="M528.6,100.9c0,5.6-4.4,9.9-9.9,9.9c-5.5,0-9.9-4.2-9.9-9.9c0-5.4,4.5-9.9,9.9-9.9
					C524.1,91,528.6,95.5,528.6,100.9z M526.2,100.9c0-4.2-3.1-7.7-7.6-7.7c-4.5,0-7.6,3.5-7.6,7.7c0,4.3,3.5,7.7,7.6,7.7
					C522.8,108.6,526.2,105.2,526.2,100.9z"/>
				<path class="st0" d="M535.8,108.2h5.7v2.2h-8.1v-19h2.4V108.2z"/>
				<path class="st0" d="M545.4,91.4h3.9c5.8,0,10.6,3.1,10.6,9.4c0,6.5-4.7,9.6-10.7,9.6h-3.8V91.4z M547.8,108.2h0.8
					c4.8,0,9-1.8,9-7.3c0-5.5-4.2-7.3-9-7.3h-0.8V108.2z"/>
				<path class="st0" d="M588.4,95c-1.4-1.2-3.2-1.9-5-1.9c-4.3,0-7.5,3.5-7.5,7.7c0,4.2,3.2,7.7,7.4,7.7c1.9,0,3.6-0.7,5.1-2v2.8
					c-1.5,0.9-3.3,1.3-5,1.3c-5.4,0-9.9-4.3-9.9-9.8c0-5.6,4.5-10,10.1-10c1.7,0,3.3,0.4,4.8,1.3V95z"/>
				<path class="st0" d="M612.2,100.9c0,5.6-4.5,9.9-9.9,9.9c-5.5,0-9.9-4.2-9.9-9.9c0-5.4,4.5-9.9,9.9-9.9
					C607.7,91,612.2,95.5,612.2,100.9z M609.9,100.9c0-4.2-3.1-7.7-7.6-7.7c-4.5,0-7.6,3.5-7.6,7.7c0,4.3,3.5,7.7,7.6,7.7
					C606.4,108.6,609.9,105.2,609.9,100.9z"/>
				<path class="st0" d="M619.7,105.6l-2.2,4.8H615l9-19.8l9.1,19.8h-2.5l-2.2-4.8H619.7z M624.1,95.8l-3.4,7.7h6.7L624.1,95.8z"/>
				<path class="st0" d="M645.6,95c-0.7-1.2-1.6-1.8-3-1.8c-1.5,0-3.2,1-3.2,2.7c0,1.5,1.4,2.3,2.6,2.7l1.4,0.5
					c2.7,1.1,4.7,2.5,4.7,5.7c0,3.4-2.7,5.9-6.1,5.9c-3.1,0-5.5-2.3-5.9-5.3l2.4-0.5c0,2.1,1.6,3.6,3.7,3.6c2,0,3.5-1.7,3.5-3.7
					c0-2-1.6-2.9-3.3-3.6l-1.3-0.6c-2.2-0.9-4.1-2.2-4.1-4.8c0-3.1,2.7-4.9,5.6-4.9c2.1,0,3.8,1,4.9,2.9L645.6,95z"/>
				<path class="st0" d="M658.3,110.4h-2.4V93.6h-4.5v-2.2h11.4v2.2h-4.5V110.4z"/>
			</g>
			<polygon class="st0" points="469.3,96.4 473.3,100.5 469.3,104.5 465.2,100.5 			"/>
		</g>
	</g>
</g>
</svg>
